<svg width="160" height="215" xmlns="http://www.w3.org/2000/svg" xmlns:xlink="http://www.w3.org/1999/xlink" xml:space="preserve" overflow="hidden"><g transform="translate(-206 -1384)"><g><path d="M208 1417.68C208 1434.62 242.923 1448.36 286.002 1448.36 329.081 1448.36 364.004 1434.62 364.004 1417.68L364.004 1565.32C364.004 1582.26 329.081 1596 286.002 1596 242.923 1596 208 1582.26 208 1565.32Z" fill="#000000" fill-rule="evenodd" fill-opacity="1"/><path d="M208 1417.68C208 1400.74 242.923 1387 286.002 1387 329.081 1387 364.004 1400.74 364.004 1417.68 364.004 1434.62 329.081 1448.36 286.002 1448.36 242.923 1448.36 208 1434.62 208 1417.68Z" fill="#666666" fill-rule="evenodd" fill-opacity="1"/><path d="M208 1419C208 1401.33 242.922 1387 286 1387 329.078 1387 364 1401.33 364 1419 364 1436.67 329.078 1451 286 1451 242.922 1451 208 1436.67 208 1419Z" fill="#DC4A1F" fill-rule="evenodd" fill-opacity="1"/></g></g></svg>