<svg width="160" height="211" xmlns="http://www.w3.org/2000/svg" xmlns:xlink="http://www.w3.org/1999/xlink" xml:space="preserve" overflow="hidden"><g transform="translate(-206 -1136)"><g><path d="M208 1167.68C208 1184.62 242.923 1198.36 286.002 1198.36 329.081 1198.36 364.004 1184.62 364.004 1167.68L364.004 1315.32C364.004 1332.26 329.081 1346 286.002 1346 242.923 1346 208 1332.26 208 1315.32Z" fill="#F5F1E8" fill-rule="evenodd" fill-opacity="1"></path><path d="M208 1167.68C208 1150.74 242.923 1137 286.002 1137 329.081 1137 364.004 1150.74 364.004 1167.68 364.004 1184.62 329.081 1198.36 286.002 1198.36 242.923 1198.36 208 1184.62 208 1167.68Z" fill="#F9F7F1" fill-rule="evenodd" fill-opacity="1"></path><path d="M208 1168.5C208 1151.1 242.922 1137 286 1137 329.078 1137 364 1151.1 364 1168.5 364 1185.9 329.078 1200 286 1200 242.922 1200 208 1185.9 208 1168.5Z" fill="#DC4A1F" fill-rule="evenodd" fill-opacity="1"></path></g></g></svg>